<?xml version="1.0" encoding="UTF-8"?>
<svg width="113px" height="62px" viewBox="0 0 113 62" version="1.1" xmlns="http://www.w3.org/2000/svg" xmlns:xlink="http://www.w3.org/1999/xlink">
    <!-- Generator: Sketch 45.2 (43514) - http://www.bohemiancoding.com/sketch -->
    <title>icon/2</title>
    <desc>Created with Sketch.</desc>
    <defs></defs>
    <g id="Symbols" stroke="none" stroke-width="1" fill="none" fill-rule="evenodd">
        <g id="icon/2" fill="#2F2F2F">
            <path d="M65.2419355,32 L64.1935484,38 L45,38 L45,54 L39,54 L39,38 L21,38 L14,32 L65.2419355,32 Z M65.5913978,30 L59,30 L50,21 L42,21 L42,17 L48,17 L42,11 L42,8 L45.2727273,8 L66,27 L66.1155914,27 L65.5913978,30 Z M73.4731183,8 L78.3177484,8 L68.6767035,54 L64.6935484,54 L73.4731183,8 Z M61.5833333,62 L67,62 L68.4671155,55 L64.5026882,55 L63.1666667,62 L61.5833333,62 Z M74,-3.55271368e-15 L78,-3.55271368e-15 L113,31 L105,31 L78.4445217,7.39513044 L78.4359636,7.43596361 L78,7 L73.6639785,7 L75,-7.10542736e-15 L74,-7.10542736e-15 Z M39,55 L42,58 L45,55 L39,55 Z M44.1818182,7 L42,5 L42,7 L44.1818182,7 Z M42,8 L42,11 L36,17 L42,17 L42,21 L34,21 L25,30 L14,30 L38.64,8 L42,8 Z M42,7 L42,5 L39.76,7 L42,7 Z M78,62 L78,55 L105,31 L113,31 L78,62 Z M35,62 L0,31 L8,31 L35,55 L35,62 Z M35,-3.55271368e-15 L35,7 L8,31 L0,31 L35,-3.55271368e-15 Z" id="Combined-Shape"></path>
        </g>
    </g>
</svg>